<svg width="22" height="24" viewBox="0 0 22 24" fill="none" xmlns="http://www.w3.org/2000/svg">
<g clip-path="url(#clip0_6_1681)" filter="url(#filter0_di_6_1681)">
<path d="M11 2.84233L6.4625 7.37983C5.56518 8.27725 4.95412 9.42059 4.70658 10.6653C4.45905 11.91 4.58616 13.2001 5.07184 14.3726C5.55752 15.545 6.37996 16.5471 7.43516 17.2522C8.49036 17.9572 9.73093 18.3335 11 18.3335C12.2691 18.3335 13.5096 17.9572 14.5648 17.2522C15.62 16.5471 16.4425 15.545 16.9282 14.3726C17.4138 13.2001 17.541 11.91 17.2934 10.6653C17.0459 9.42059 16.4348 8.27725 15.5375 7.37983L11 2.84233ZM11 0.25L16.8337 6.08367C17.9874 7.23746 18.7732 8.70747 19.0915 10.3078C19.4098 11.9081 19.2464 13.5669 18.622 15.0744C17.9976 16.5819 16.9401 17.8704 15.5834 18.7769C14.2267 19.6834 12.6317 20.1673 11 20.1673C9.36831 20.1673 7.77326 19.6834 6.41656 18.7769C5.05986 17.8704 4.00243 16.5819 3.37801 15.0744C2.75358 13.5669 2.5902 11.9081 2.90852 10.3078C3.22684 8.70747 4.01256 7.23746 5.16634 6.08367L11 0.25Z" fill="white"/>
</g>
<defs>
<filter id="filter0_di_6_1681" x="-2.26241" y="0" width="24.2624" height="25.0165" filterUnits="userSpaceOnUse" color-interpolation-filters="sRGB">
<feFlood flood-opacity="0" result="BackgroundImageFix"/>
<feColorMatrix in="SourceAlpha" type="matrix" values="0 0 0 0 0 0 0 0 0 0 0 0 0 0 0 0 0 0 127 0" result="hardAlpha"/>
<feGaussianBlur stdDeviation="0.377069"/>
<feColorMatrix type="matrix" values="0 0 0 0 0 0 0 0 0 0 0 0 0 0 0 0 0 0 0.1 0"/>
<feBlend mode="normal" in2="BackgroundImageFix" result="effect1_dropShadow_6_1681"/>
<feBlend mode="normal" in="SourceGraphic" in2="effect1_dropShadow_6_1681" result="shape"/>
<feColorMatrix in="SourceAlpha" type="matrix" values="0 0 0 0 0 0 0 0 0 0 0 0 0 0 0 0 0 0 127 0" result="hardAlpha"/>
<feOffset dx="-0.754137" dy="0.754137"/>
<feGaussianBlur stdDeviation="0.754137"/>
<feComposite in2="hardAlpha" operator="arithmetic" k2="-1" k3="1"/>
<feColorMatrix type="matrix" values="0 0 0 0 1 0 0 0 0 1 0 0 0 0 1 0 0 0 0.25 0"/>
<feBlend mode="normal" in2="shape" result="effect2_innerShadow_6_1681"/>
</filter>
<clipPath id="clip0_6_1681">
<rect width="22" height="22" fill="white"/>
</clipPath>
</defs>
</svg>
