<svg width="40" height="40" viewBox="0 0 40 40" fill="none" xmlns="http://www.w3.org/2000/svg">
<circle cx="20" cy="20" r="20" fill="white" fill-opacity="0.23"/>
<path d="M23.3594 14.0937L20.4219 31H16.1406L19.0781 14.0937H23.3594ZM19.6406 9.79687C19.6302 9.11979 19.8437 8.54687 20.2812 8.07812C20.7187 7.60937 21.2865 7.36979 21.9844 7.35937C22.6406 7.34896 23.1875 7.55729 23.625 7.98437C24.0625 8.41146 24.276 8.95833 24.2656 9.625C24.2865 10.3021 24.0781 10.875 23.6406 11.3437C23.2135 11.8125 22.651 12.0521 21.9531 12.0625C21.2969 12.0833 20.75 11.8802 20.3125 11.4531C19.875 11.0156 19.651 10.4635 19.6406 9.79687Z" fill="white"/>
</svg>
