<svg width="33" height="58" viewBox="0 0 33 58" fill="none" xmlns="http://www.w3.org/2000/svg">
<path fill-rule="evenodd" clip-rule="evenodd" d="M1.27678 28.5729C1.67647 28.1918 2.3245 28.1918 2.7242 28.5729L31.1482 55.677C31.5479 56.0582 31.5479 56.6761 31.1482 57.0572C30.7485 57.4384 30.1005 57.4384 29.7008 57.0572L1.27678 29.9531C0.877084 29.572 0.877084 28.9541 1.27678 28.5729Z" fill="white"/>
<path fill-rule="evenodd" clip-rule="evenodd" d="M31.3549 1.31087C31.7546 1.69201 31.7546 2.30995 31.3549 2.69108L2.93091 29.7952C2.53122 30.1763 1.88318 30.1763 1.48349 29.7952C1.0838 29.4141 1.0838 28.7961 1.48349 28.415L29.9075 1.31087C30.3072 0.929738 30.9552 0.929738 31.3549 1.31087Z" fill="white"/>
</svg>
