<svg width="35" height="35" viewBox="0 0 35 35" fill="none" xmlns="http://www.w3.org/2000/svg">
<path d="M17.2725 0.0136111L17.5 0C17.9763 6.28261e-05 18.4359 0.174915 18.7918 0.491391C19.1477 0.807867 19.3751 1.24396 19.4308 1.71694L19.4444 1.94444V15.5556H33.0556C33.5318 15.5556 33.9915 15.7305 34.3474 16.0469C34.7033 16.3634 34.9307 16.7995 34.9864 17.2725L35 17.5C34.9999 17.9763 34.8251 18.4359 34.5086 18.7918C34.1921 19.1477 33.756 19.3751 33.2831 19.4308L33.0556 19.4444H19.4444V33.0556C19.4444 33.5318 19.2695 33.9915 18.9531 34.3474C18.6366 34.7033 18.2005 34.9307 17.7275 34.9864L17.5 35C17.0237 34.9999 16.5641 34.8251 16.2082 34.5086C15.8523 34.1921 15.6249 33.756 15.5692 33.2831L15.5556 33.0556V19.4444H1.94444C1.46819 19.4444 1.00851 19.2695 0.65261 18.9531C0.296709 18.6366 0.0693334 18.2005 0.0136111 17.7275L0 17.5C6.28261e-05 17.0237 0.174915 16.5641 0.491391 16.2082C0.807867 15.8523 1.24396 15.6249 1.71694 15.5692L1.94444 15.5556H15.5556V1.94444C15.5556 1.46819 15.7305 1.00851 16.0469 0.65261C16.3634 0.296709 16.7995 0.0693334 17.2725 0.0136111L17.5 0L17.2725 0.0136111Z" fill="#F8F8F8"/>
</svg>
