<svg width="23" height="20" viewBox="0 0 23 20" fill="none" xmlns="http://www.w3.org/2000/svg">
<path fill-rule="evenodd" clip-rule="evenodd" d="M17.5 4.00001C16.9317 4.00001 17.7801 4.00001 17 4.00001C16 2 14 0 10.5 0C7 0 4.56176 2.12215 4 5.50001C1.78249 5.50001 0 7.74206 0 10C0.5 12.5 1 13.5 3.52173 14H17.6495C20.324 14 22.5 11.7835 22.5 9.05945C22.5 6.3354 20.1744 4.00001 17.5 4.00001ZM21.0998 8.86379C21.0998 10.869 19.4815 12.5 17.4916 12.5H4.33634C2.77226 12.5 1.4998 11.2181 1.4998 9.64235C1.4998 8.06616 2.77226 6.78392 4.33634 6.78392C4.44072 6.78392 4.55466 6.79226 4.69489 6.80934L5.15662 6.86733L5.20284 6.40337C5.48808 3.57156 7.8362 1.43607 10.6648 1.43607C12.979 1.43607 15.0558 2.91494 15.8331 5.11636L15.9801 5.53186L16.3988 5.398C16.7542 5.28519 17.1219 5.22798 17.4916 5.22798C19.4815 5.22798 21.0998 6.85899 21.0998 8.86379Z" fill="white"/>
<path fill-rule="evenodd" clip-rule="evenodd" d="M4.12309 16.0216C4.69553 17.0639 5.26797 18.1055 5.841 19.1478C6.23932 19.8731 7.352 19.2257 6.95308 18.4997C6.38064 17.4575 5.80821 16.4152 5.23517 15.373C4.83685 14.6477 3.72417 15.2951 4.12309 16.0216Z" fill="white"/>
<path fill-rule="evenodd" clip-rule="evenodd" d="M8.38549 16.0216C8.95789 17.0638 9.53029 18.1053 10.1027 19.1475C10.5016 19.8728 11.6142 19.2254 11.2153 18.4995C10.6429 17.4573 10.0705 16.4152 9.49749 15.373C9.0992 14.6477 7.986 15.2951 8.38549 16.0216Z" fill="white"/>
<path fill-rule="evenodd" clip-rule="evenodd" d="M12.8647 16.0215C13.4377 17.0635 14.01 18.105 14.5823 19.1471C14.9806 19.8723 16.0937 19.2249 15.6948 18.4991C15.1225 17.4571 14.5496 16.415 13.9772 15.3729C13.579 14.6477 12.4659 15.2951 12.8647 16.0215Z" fill="white"/>
<path fill-rule="evenodd" clip-rule="evenodd" d="M17.1934 16.0215C17.7657 17.0635 18.3386 18.105 18.911 19.147C19.3092 19.8722 20.4223 19.2249 20.0234 18.4991C19.4505 17.457 18.8782 16.415 18.3059 15.3729C17.907 14.6477 16.7945 15.2951 17.1934 16.0215Z" fill="white"/>
</svg>
