<svg width="22" height="22" viewBox="0 0 22 22" fill="none" xmlns="http://www.w3.org/2000/svg">
<path d="M17.0646 11.3158C17.2274 11.3847 17.2274 11.6153 17.0646 11.6842L5.00205 16.7876C4.83055 16.8602 4.66168 16.6796 4.74556 16.5133L6.73684 12.5667L6.8265 12.385C7.10176 11.8271 7.10176 11.1729 6.8265 10.615L6.73684 10.4333L4.74556 6.48669C4.66168 6.32044 4.83055 6.13985 5.00205 6.2124L17.0646 11.3158ZM19.7776 12.4235C20.5994 12.082 20.5994 10.918 19.7776 10.5766L3.23756 3.70369C2.94126 3.58057 2.59989 3.64945 2.37451 3.87783V3.87783C2.1483 4.10705 2.08439 4.45087 2.2131 4.74608L4.80937 10.7007C5.03162 11.2104 5.03162 11.7896 4.80937 12.2993L2.2131 18.2539C2.08439 18.5491 2.1483 18.8929 2.37451 19.1222V19.1222C2.59989 19.3506 2.94126 19.4194 3.23756 19.2963L19.7776 12.4235Z" fill="white"/>
</svg>
